<?xml version="1.0" standalone="no"?>
<!DOCTYPE svg PUBLIC "-//W3C//DTD SVG 20010904//EN"
 "http://www.w3.org/TR/2001/REC-SVG-20010904/DTD/svg10.dtd">
<svg version="1.0" xmlns="http://www.w3.org/2000/svg"
 width="129.000000pt" height="129.000000pt" viewBox="0 0 129.000000 129.000000"
 preserveAspectRatio="xMidYMid meet">
<metadata>
Created by potrace 1.11, written by Peter Selinger 2001-2013
</metadata>
<g transform="translate(0.000000,129.000000) scale(0.100000,-0.100000)"
fill="#000000" stroke="none">
<path d="M39 1078 c0 -95 -1 -202 0 -238 0 -36 0 -230 1 -432 l0 -368 470 0
471 0 -3 67 -3 68 -400 2 c-399 1 -400 1 -399 22 0 12 1 219 2 461 l2 440 325
0 325 0 0 -195 0 -195 -117 4 c-64 2 -123 2 -130 -1 -9 -4 -13 -26 -13 -74 l0
-68 189 -3 c103 -2 195 -2 205 0 14 3 16 30 16 267 l0 264 133 3 132 3 0 70 0
70 -602 3 -603 2 -1 -172z"/>
<path d="M310 645 l0 -335 401 0 402 0 -4 -132 -4 -133 68 0 68 0 2 465 2 465
-70 0 -70 0 -5 -260 -5 -260 -320 0 -320 1 0 188 0 189 125 1 125 1 3 73 3 72
-201 0 -200 0 0 -335z"/>
</g>
</svg>
